<?xml version="1.0" standalone="no"?><svg xmlns="http://www.w3.org/2000/svg" viewBox="0 0 1440 320"><path fill="#181f2a" fill-opacity="1" d="M0,256L40,224C80,192,160,128,240,133.3C320,139,400,213,480,213.3C560,213,640,139,720,133.3C800,128,880,192,960,208C1040,224,1120,192,1200,197.3C1280,203,1360,245,1400,266.7L1440,288L1440,320L1400,320C1360,320,1280,320,1200,320C1120,320,1040,320,960,320C880,320,800,320,720,320C640,320,560,320,480,320C400,320,320,320,240,320C160,320,80,320,40,320L0,320Z"></path></svg>